
<svg version="1.0" xmlns="http://www.w3.org/2000/svg"
 width="auto" height="100.000000pt" viewBox="0 0 1563.000000 1563.000000"
 preserveAspectRatio="xMidYMid meet">

<g transform="translate(0.000000,1563.000000) scale(0.100000,-0.100000)" fill="#ffffff" stroke="none">
<path d="M7590 11980 c-496 -38 -849 -112 -1260 -265 -1145 -427 -2071 -1380
-2467 -2540 -103 -303 -151 -513 -209 -930 -25 -174 -25 -684 0 -885 51 -419
151 -817 292 -1155 59 -142 243 -499 323 -624 197 -312 450 -617 703 -847 484
-440 1019 -747 1623 -932 570 -175 1286 -218 1921 -117 485 78 982 259 1424
520 627 370 1136 889 1510 1539 61 106 153 294 190 386 10 25 36 89 59 144 69
166 137 391 185 606 80 361 100 551 101 930 0 293 -10 415 -55 690 -82 503
-271 1018 -528 1445 -528 875 -1303 1499 -2272 1827 -464 158 -1090 242 -1540
208z m1451 -2316 c889 -889 1231 -1238 1248 -1272 71 -137 -10 -322 -160 -366
-66 -20 -92 -20 -160 0 -53 15 -80 41 -1104 1065 l-1050 1049 -1034 -1034
c-755 -755 -1049 -1042 -1085 -1063 -42 -22 -64 -27 -121 -27 -60 0 -79 4
-125 30 -64 36 -115 97 -131 157 -15 55 -7 142 16 192 12 27 165 187 462 485
l443 446 0 484 0 485 24 50 c73 159 285 167 374 15 l27 -45 5 -278 5 -277 565
565 c311 311 568 565 571 565 4 0 557 -551 1230 -1226z m788 -2967 c1 -772 -2
-1044 -11 -1060 -24 -46 -26 -46 -370 -47 l-328 0 0 925 0 925 -515 0 -515 0
0 -925 0 -925 -1119 0 -1120 0 -28 24 -28 24 -3 1044 -3 1043 1013 1007 1013
1007 1006 -1002 1006 -1002 2 -1038z"/>
<path d="M6500 7010 l0 -430 470 0 470 0 0 430 0 430 -470 0 -470 0 0 -430z"/>
</g>
</svg>
